<?xml version="1.0" encoding="UTF-8"?>
<svg id="Calque_2" data-name="Calque 2" xmlns="http://www.w3.org/2000/svg" viewBox="0 0 420.3364 369.8926">
  <defs>
    <style>
      .cls-1, .cls-2, .cls-3, .cls-4, .cls-5, .cls-6, .cls-7, .cls-8 {
        fill: none;
        stroke: #000;
        stroke-miterlimit: 10;
      }

      .cls-2 {
        stroke-dasharray: 12.4004 12.4004;
      }

      .cls-9 {
        fill: #fff;
      }

      .cls-3 {
        stroke-dasharray: 12.0294 12.0294;
      }

      .cls-4 {
        stroke-dasharray: 12.0294 12.0294;
      }

      .cls-5 {
        stroke-dasharray: 12.4004 12.4004;
      }

      .cls-6 {
        stroke-dasharray: 12.0294 12.0294;
      }

      .cls-10 {
        opacity: 0;
      }

      .cls-7 {
        stroke-dasharray: 11.4967 11.4967;
      }

      .cls-8 {
        stroke-dasharray: 11.4967 11.4967;
      }
    </style>
  </defs>
  <g id="Calque_1-2" data-name="Calque 1">
    <g id="C_BLANC" data-name="C BLANC">
      <g>
        <g>
          <g class="cls-10">
            <polygon class="cls-9" points="30.5052 156.0788 160.1683 230.9401 389.8323 98.3439 260.1683 23.4826 30.5052 156.0788"/>
          </g>
          <g class="cls-10">
            <polygon class="cls-9" points="400.0003 115.9557 170.3363 248.5519 170.3363 340.5397 400.0003 207.943 400.0003 115.9557"/>
          </g>
          <g class="cls-10">
            <polygon class="cls-9" points="20.3367 265.6784 149.9998 340.5397 149.9998 248.5519 20.3367 173.6906 20.3367 265.6784"/>
          </g>
          <path class="cls-9" d="M160.1685,369.8926L0,277.4194v-127.2114L260.1685,0l160.168,92.4731v127.2114l-260.168,150.208ZM170.3364,248.5518v91.9878l229.6641-132.5962v-91.9878l-229.6641,132.5962ZM20.3369,265.6782l129.6631,74.8613v-91.9878L20.3369,173.6904v91.9878ZM30.5049,156.0786l129.6636,74.8613,229.6641-132.5962L260.1685,23.4824,30.5049,156.0786Z"/>
        </g>
        <g class="cls-10">
          <path class="cls-9" d="M10.1687,271.5489v-115.4701L260.1687,11.7412l150,86.6026v115.4701l-250,144.3377L10.1687,271.5489ZM10.1687,156.0788l150,86.6025,250-144.3375M160.1687,242.6813v115.4701"/>
          <g>
            <g>
              <polyline class="cls-1" points="15.3649 274.5489 10.1688 271.5489 10.1688 265.5489"/>
              <line class="cls-7" x1="10.1688" y1="254.0522" x2="10.1688" y2="167.8271"/>
              <polyline class="cls-1" points="10.1688 162.0788 10.1688 156.0788 15.3649 153.0788"/>
              <line class="cls-6" x1="25.7826" y1="147.0641" x2="249.7637" y2="17.7485"/>
              <polyline class="cls-1" points="254.9726 14.7412 260.1688 11.7412 265.3649 14.7412"/>
              <line class="cls-5" x1="276.1039" y1="20.9414" x2="399.6031" y2="92.2436"/>
              <polyline class="cls-1" points="404.9726 95.3437 410.1688 98.3437 410.1688 104.3437"/>
              <line class="cls-8" x1="410.1688" y1="115.8404" x2="410.1688" y2="202.0655"/>
              <polyline class="cls-1" points="410.1688 207.8138 410.1688 213.8138 404.9726 216.8138"/>
              <line class="cls-3" x1="394.5549" y1="222.8285" x2="170.5737" y2="352.1442"/>
              <polyline class="cls-1" points="165.3649 355.1515 160.1687 358.1515 154.9726 355.1515"/>
              <line class="cls-5" x1="144.2335" y1="348.9513" x2="20.7344" y2="277.649"/>
            </g>
            <g>
              <line class="cls-1" x1="10.1688" y1="156.0788" x2="15.3649" y2="159.0788"/>
              <line class="cls-2" x1="26.1039" y1="165.279" x2="149.603" y2="236.5812"/>
              <polyline class="cls-1" points="154.9726 239.6813 160.1687 242.6813 165.3649 239.6813"/>
              <line class="cls-4" x1="175.7826" y1="233.6666" x2="399.7637" y2="104.3511"/>
              <line class="cls-1" x1="404.9726" y1="101.3437" x2="410.1688" y2="98.3437"/>
            </g>
            <g>
              <line class="cls-1" x1="160.1687" y1="242.6813" x2="160.1687" y2="248.6813"/>
              <line class="cls-7" x1="160.1687" y1="260.178" x2="160.1687" y2="346.4031"/>
              <line class="cls-1" x1="160.1687" y1="352.1514" x2="160.1687" y2="358.1514"/>
            </g>
          </g>
        </g>
      </g>
    </g>
  </g>
</svg>