<?xml version="1.0" encoding="UTF-8"?>
<svg id="Calque_2" data-name="Calque 2" xmlns="http://www.w3.org/2000/svg" viewBox="0 0 1055.7844 369.8926">
  <defs>
    <style>
      .cls-1, .cls-2, .cls-3, .cls-4, .cls-5, .cls-6, .cls-7, .cls-8 {
        fill: none;
        stroke: #000;
        stroke-miterlimit: 10;
      }

      .cls-2 {
        stroke-dasharray: 12.4004 12.4004;
      }

      .cls-9, .cls-10 {
        fill: #fff;
      }

      .cls-3 {
        stroke-dasharray: 12.0294 12.0294;
      }

      .cls-4 {
        stroke-dasharray: 12.0294 12.0294;
      }

      .cls-10, .cls-11 {
        opacity: 0;
      }

      .cls-5 {
        stroke-dasharray: 12.4004 12.4004;
      }

      .cls-6 {
        stroke-dasharray: 12.0294 12.0294;
      }

      .cls-7 {
        stroke-dasharray: 11.4967 11.4967;
      }

      .cls-8 {
        stroke-dasharray: 11.4967 11.4967;
      }
    </style>
  </defs>
  <g id="Calque_1-2" data-name="Calque 1">
    <g id="H_BLANC" data-name="H BLANC">
      <g>
        <g>
          <g>
            <g class="cls-11">
              <polygon class="cls-9" points="30.5052 156.0788 160.1683 230.9401 389.8323 98.3439 260.1683 23.4826 30.5052 156.0788"/>
            </g>
            <g class="cls-11">
              <polygon class="cls-9" points="400.0003 115.9557 170.3363 248.5519 170.3363 340.5397 400.0003 207.943 400.0003 115.9557"/>
            </g>
            <g class="cls-11">
              <polygon class="cls-9" points="20.3367 265.6784 149.9998 340.5397 149.9998 248.5519 20.3367 173.6906 20.3367 265.6784"/>
            </g>
            <path class="cls-9" d="M160.1685,369.8926L0,277.4194v-127.2114L260.1685,0l160.168,92.4731v127.2114l-260.168,150.208ZM170.3364,248.5518v91.9878l229.6641-132.5962v-91.9878l-229.6641,132.5962ZM20.3369,265.6782l129.6631,74.8613v-91.9878L20.3369,173.6904v91.9878ZM30.5049,156.0786l129.6636,74.8613,229.6641-132.5962L260.1685,23.4824,30.5049,156.0786Z"/>
          </g>
          <g class="cls-11">
            <path class="cls-9" d="M10.1687,271.5489v-115.4701L260.1687,11.7412l150,86.6026v115.4701l-250,144.3377L10.1687,271.5489ZM10.1687,156.0788l150,86.6025,250-144.3375M160.1687,242.6813v115.4701"/>
            <g>
              <g>
                <polyline class="cls-1" points="15.3649 274.5489 10.1687 271.5489 10.1687 265.5489"/>
                <line class="cls-7" x1="10.1687" y1="254.0522" x2="10.1687" y2="167.8271"/>
                <polyline class="cls-1" points="10.1687 162.0788 10.1687 156.0788 15.3649 153.0788"/>
                <line class="cls-6" x1="25.7826" y1="147.0641" x2="249.7637" y2="17.7485"/>
                <polyline class="cls-1" points="254.9726 14.7412 260.1688 11.7412 265.3649 14.7412"/>
                <line class="cls-5" x1="276.104" y1="20.9414" x2="399.603" y2="92.2437"/>
                <polyline class="cls-1" points="404.9726 95.3438 410.1687 98.3438 410.1687 104.3438"/>
                <line class="cls-8" x1="410.1687" y1="115.8405" x2="410.1687" y2="202.0655"/>
                <polyline class="cls-1" points="410.1687 207.8138 410.1687 213.8138 404.9726 216.8138"/>
                <line class="cls-3" x1="394.5549" y1="222.8285" x2="170.5737" y2="352.1441"/>
                <polyline class="cls-1" points="165.3649 355.1515 160.1687 358.1515 154.9726 355.1515"/>
                <line class="cls-5" x1="144.2335" y1="348.9513" x2="20.7344" y2="277.649"/>
              </g>
              <g>
                <line class="cls-1" x1="10.1687" y1="156.0788" x2="15.3649" y2="159.0788"/>
                <line class="cls-2" x1="26.104" y1="165.279" x2="149.603" y2="236.5812"/>
                <polyline class="cls-1" points="154.9726 239.6813 160.1687 242.6813 165.3649 239.6813"/>
                <line class="cls-4" x1="175.7826" y1="233.6666" x2="399.7637" y2="104.3511"/>
                <line class="cls-1" x1="404.9726" y1="101.3438" x2="410.1687" y2="98.3438"/>
              </g>
              <g>
                <line class="cls-1" x1="160.1687" y1="242.6813" x2="160.1687" y2="248.6813"/>
                <line class="cls-7" x1="160.1687" y1="260.178" x2="160.1687" y2="346.4031"/>
                <line class="cls-1" x1="160.1687" y1="352.1514" x2="160.1687" y2="358.1514"/>
              </g>
            </g>
          </g>
        </g>
        <g class="cls-11">
          <rect class="cls-9" x="410.169" y="155.1019" width="40.6728" height="146.2916"/>
        </g>
        <g>
          <path class="cls-9" d="M458.239,341.6607h16.168s0,5.7593,0,5.7593h-23.5649s0-36.9853,0-36.9853h7.397s0,31.2261,0,31.2261ZM478.3694,347.42h24.4629s0-5.9707,0-5.9707h-17.0659s0-9.9331,0-9.9331h15.481v-5.7588h-15.481s0-9.352,0-9.352h17.0659s0-5.9707,0-5.9707h-24.4629s0,36.9854,0,36.9854ZM552.9993,319.1792c1.3555,2.7656,2.0342,6.0146,2.0342,9.748,0,3.6987-.6787,6.9399-2.0342,9.7217-1.3564,2.7832-3.4346,4.9404-6.2349,6.4727-2.8003,1.5322-6.3667,2.2983-10.6992,2.2983h-12.9976s0-36.9853,0-36.9853h12.9976c4.3325,0,7.8989.7661,10.6992,2.2983,2.8003,1.5322,4.8784,3.6812,6.2349,6.4463ZM547.4778,328.9273c0-2.5361-.3696-4.7197-1.1094-6.5518-.7397-1.8311-1.9644-3.231-3.6724-4.2002-1.709-.9687-4.0601-1.4531-7.0537-1.4531h-5.1777s0,24.3574,0,24.3574h5.1777c2.9937,0,5.3447-.4839,7.0537-1.4531,1.708-.9683,2.9326-2.3594,3.6724-4.1738.7397-1.814,1.1094-3.9893,1.1094-6.5254ZM559.26,347.4199h7.397s0-36.9854,0-36.9854h-7.397s0,36.9854,0,36.9854ZM589.0061,326.0215l-5.4946-1.0039c-1.7617-.3174-3.0034-.8628-3.7251-1.6382-.7222-.7744-1.083-1.6553-1.083-2.6416,0-1.1973.3432-2.1309,1.0303-2.8003.6865-.6689,1.5322-1.1445,2.5361-1.4268,1.0039-.2813,1.9458-.4229,2.8267-.4229.9512,0,1.9019.1587,2.853.4756.9512.3174,1.7783.8901,2.4834,1.7173.7041.8281,1.1797,2.0342,1.4268,3.6191h6.8687c-.2471-2.8174-.9956-5.1157-2.2456-6.895-1.251-1.7783-2.8716-3.0908-4.8608-3.936-1.9907-.8457-4.2363-1.2681-6.7368-1.2681-2.3955,0-4.5796.4409-6.5518,1.3208-1.9731.8809-3.54,2.1396-4.7021,3.7778-1.1626,1.6377-1.7437,3.6191-1.7437,5.9438,0,2.5718.8628,4.7998,2.5889,6.6841,1.7256,1.8848,4.1558,3.126,7.2915,3.7246l5.9702,1.1099c1.937.3525,3.1875.9336,3.7515,1.7432.563.811.8452,1.7266.8452,2.7476,0,.9165-.2905,1.7437-.8716,2.4834s-1.3735,1.3208-2.3774,1.7437-2.1582.6338-3.4609.6338c-1.1279,0-2.29-.1929-3.4873-.5811-1.1978-.3872-2.2456-1.0649-3.1436-2.0342-.8984-.9683-1.5059-2.3511-1.8228-4.1475h-6.7632c.2114,2.3604.7925,4.377,1.7437,6.0498.9512,1.6733,2.1396,3.0298,3.5664,4.0684,1.4268,1.0391,2.9854,1.7964,4.6758,2.272,1.6909.4756,3.3818.7134,5.0723.7134s3.3462-.2563,4.9668-.7666c1.6196-.5098,3.0908-1.2495,4.4116-2.2188,1.3213-.9688,2.3779-2.1572,3.1704-3.5664.7925-1.4087,1.189-3.0293,1.189-4.8613,0-3.2402-.9165-5.6797-2.7476-7.3174-1.832-1.6382-4.3154-2.7388-7.4502-3.3022ZM615.0012,318.0166c1.5498-1.0039,3.4165-1.5059,5.6006-1.5059,2.3252,0,4.2007.5376,5.6274,1.6113,1.4263,1.0752,2.3511,2.5981,2.7739,4.5703h8.1367c-.6699-4.0855-2.4487-7.2559-5.3364-9.5103-2.8887-2.2539-6.5874-3.3813-11.0957-3.3813-3.7339,0-6.9482.8105-9.6426,2.4302-2.6948,1.6206-4.7642,3.8755-6.2085,6.7632-1.4443,2.8887-2.166,6.2173-2.166,9.9858,0,3.7695.7217,7.0894,2.166,9.96,1.4443,2.8711,3.5137,5.1074,6.2085,6.71,2.6943,1.603,5.9087,2.4043,9.6426,2.4043,4.5083,0,8.1978-1.1006,11.0693-3.3027,2.8701-2.2007,4.6401-5.2568,5.3096-9.167h-8.1367c-.4224,1.8677-1.3389,3.3022-2.7471,4.3062-1.4097,1.0039-3.2759,1.5059-5.6011,1.5059-2.1841,0-4.0508-.502-5.6006-1.5059-1.5503-1.0039-2.7393-2.4302-3.5664-4.2798-.8281-1.8491-1.2417-4.0591-1.2417-6.6309,0-2.5708.4136-4.7896,1.2417-6.6572.8271-1.8667,2.0161-3.3022,3.5664-4.3062ZM674.7854,318.9678c1.5664,2.8711,2.3506,6.1909,2.3506,9.9595,0,3.7695-.7842,7.0894-2.3506,9.9595-1.5684,2.8716-3.7437,5.1172-6.5254,6.7368-2.7832,1.6206-6.0234,2.4307-9.7222,2.4307-3.6636,0-6.895-.8101-9.6953-2.4307-2.8003-1.6196-4.9849-3.8652-6.5518-6.7368-1.5679-2.8701-2.3511-6.1899-2.3511-9.9595,0-3.7686.7832-7.0884,2.3511-9.9595,1.5669-2.8706,3.7515-5.1162,6.5518-6.7368,2.8003-1.6196,6.0317-2.4302,9.6953-2.4302,3.6987,0,6.939.8105,9.7222,2.4302,2.7817,1.6206,4.957,3.8662,6.5254,6.7368ZM669.6336,328.9272c0-2.5708-.458-4.79-1.3735-6.6572-.9165-1.8667-2.1929-3.3022-3.8311-4.3062-1.6377-1.0039-3.5845-1.5059-5.8384-1.5059-2.2544,0-4.2095.502-5.8647,1.5059-1.6558,1.0039-2.9414,2.4395-3.8569,4.3062-.9165,1.8672-1.3735,4.0864-1.3735,6.6572,0,2.5718.457,4.791,1.3735,6.6572.9155,1.8677,2.2012,3.3022,3.8569,4.3062,1.6553,1.0039,3.6104,1.5059,5.8647,1.5059,2.2539,0,4.2007-.502,5.8384-1.5059,1.6382-1.0039,2.9145-2.4385,3.8311-4.3062.9155-1.8662,1.3735-4.0854,1.3735-6.6572ZM710.2639,338.8076l.4229,8.6123h-7.2383s-.5811-8.6123-.5811-8.6123c-.0713-1.2324-.3086-2.2456-.7139-3.0381-.4053-.7925-1.0303-1.3818-1.875-1.77-.8457-.3872-1.9902-.5811-3.4346-.5811h-8.3486s0,14.0015,0,14.0015h-7.3965s0-36.9853,0-36.9853h15.6924c2.9932,0,5.4688.5019,7.4229,1.5059,1.9551,1.0039,3.417,2.3774,4.3857,4.1211.9688,1.7437,1.4531,3.708,1.4531,5.8916,0,1.6904-.3701,3.249-1.1094,4.6758-.7402,1.4268-1.7266,2.6509-2.959,3.6719,1.3379.9165,2.3682,2.0962,3.0908,3.54.7217,1.4448,1.1182,3.1001,1.1885,4.9668ZM702.5501,321.9531c0-1.7256-.4932-3.0728-1.4795-4.042-.9863-.9687-2.5713-1.4531-4.7549-1.4531h-7.8203v10.9897h7.8203c2.1836,0,3.7686-.4927,4.7549-1.4795.9863-.9854,1.4795-2.3247,1.4795-4.0151ZM744.845,319.1792c1.3555,2.7656,2.0342,6.0146,2.0342,9.748,0,3.6987-.6787,6.9399-2.0342,9.7217-1.3564,2.7832-3.4346,4.9404-6.2344,6.4727-2.8008,1.5322-6.3672,2.2983-10.6992,2.2983h-12.998s0-36.9853,0-36.9853h12.998c4.332,0,7.8984.7661,10.6992,2.2983,2.7998,1.5322,4.8779,3.6812,6.2344,6.4463ZM739.3235,328.9272c0-2.5361-.3701-4.7197-1.1094-6.5518-.7402-1.8311-1.9639-3.231-3.6719-4.2002-1.709-.9687-4.0605-1.4531-7.0537-1.4531h-5.1787s0,24.3574,0,24.3574h5.1787c2.9932,0,5.3447-.4839,7.0537-1.4531,1.708-.9683,2.9316-2.3594,3.6719-4.1738.7393-1.814,1.1094-3.9893,1.1094-6.5254ZM797.2581,319.1791c1.3555,2.7656,2.0342,6.0146,2.0342,9.748,0,3.6987-.6787,6.9399-2.0342,9.7217-1.3564,2.7832-3.4346,4.9404-6.2344,6.4727-2.8008,1.5322-6.3672,2.2983-10.6992,2.2983h-12.998s0-36.9853,0-36.9853h12.998c4.332,0,7.8984.7661,10.6992,2.2983,2.7998,1.5322,4.8779,3.6812,6.2344,6.4463ZM791.7366,328.9272c0-2.5361-.3701-4.7197-1.1094-6.5518-.7402-1.8311-1.9639-3.231-3.6719-4.2002-1.709-.9687-4.0605-1.4531-7.0537-1.4531h-5.1787s0,24.3574,0,24.3574h5.1787c2.9932,0,5.3447-.4839,7.0537-1.4531,1.708-.9683,2.9316-2.3594,3.6719-4.1738.7393-1.814,1.1094-3.9893,1.1094-6.5254ZM803.5188,347.4199h24.4629s0-5.9707,0-5.9707h-17.0664s0-9.9331,0-9.9331h15.4814v-5.7588h-15.4814s0-9.352,0-9.352h17.0664s0-5.9707,0-5.9707h-24.4629s0,36.9854,0,36.9854ZM883.3528,326.9194h-17.541s0,5.4951,0,5.4951h10.0381c0,2.853-.8447,5.0811-2.5361,6.6836-1.6904,1.6035-3.998,2.4043-6.9209,2.4043-2.5361,0-4.668-.4839-6.3936-1.4531-1.7266-.9683-3.0381-2.3687-3.9365-4.2007-.8975-1.8311-1.3467-4.0327-1.3467-6.6045,0-2.606.4307-4.8516,1.2939-6.7363.8633-1.8843,2.1221-3.3369,3.7783-4.3589,1.6553-1.0215,3.6631-1.5322,6.0234-1.5322,2.1836,0,3.9619.4404,5.3359,1.3208,1.374.8809,2.3418,2.1133,2.9063,3.6982h8.2422c-.8457-3.6982-2.7041-6.5952-5.5742-8.6914-2.8711-2.0952-6.5078-3.1436-10.9102-3.1436-3.8398,0-7.1514.8188-9.9336,2.4565-2.7832,1.6382-4.9229,3.9189-6.4199,6.8423-1.4971,2.9243-2.2451,6.2876-2.2451,10.0918,0,3.7695.748,7.0718,2.2451,9.9067,1.4971,2.8359,3.6729,5.0376,6.5254,6.6045,2.8535,1.5679,6.3047,2.3516,10.3564,2.3516,3.2754,0,6.1895-.6689,8.7441-2.0078,2.5537-1.3384,4.5703-3.3369,6.0498-5.9971,1.4795-2.6592,2.2187-5.9614,2.2187-9.9067v-3.2231ZM905.0159,310.4345l13.5264,36.9853h-7.8193s-2.8716-8.2954-2.8716-8.2954h-14.0706s-2.8713,8.2954-2.8713,8.2954h-7.7676s13.4736-36.9854,13.4736-36.9854h8.4004ZM905.8578,333.3656l-5.0421-14.5652-5.0416,14.5652h10.0837ZM941.7376,333.1542c0,2.6772-.6602,4.6938-1.9814,6.0498-1.3213,1.3564-3.1621,2.0342-5.5215,2.0342-2.3604,0-4.2002-.6777-5.5215-2.0342-1.3203-1.356-1.9814-3.3726-1.9814-6.0498v-22.7197s-7.3965,0-7.3965,0v22.667c0,3.3467.6602,6.1289,1.9815,8.3477,1.3203,2.2192,3.0908,3.8755,5.3096,4.9668,2.2188,1.0913,4.7021,1.6382,7.4502,1.6382s5.2656-.5469,7.5557-1.6382c2.2891-1.0913,4.1113-2.7476,5.4678-4.9668,1.3564-2.2188,2.0342-5.001,2.0342-8.3477v-22.667s-7.3965,0-7.3965,0v22.7197ZM964.7727,318.0165c1.5498-1.0039,3.416-1.5059,5.6006-1.5059,2.3252,0,4.2012.5376,5.627,1.6113,1.4268,1.0752,2.3516,2.5981,2.7744,4.5703h8.1367c-.6699-4.0855-2.4492-7.2559-5.3369-9.5103-2.8887-2.2539-6.5869-3.3813-11.0957-3.3813-3.7334,0-6.9473.8105-9.6426,2.4302-2.6943,1.6206-4.7637,3.8755-6.208,6.7632-1.4443,2.8887-2.166,6.2173-2.166,9.9858,0,3.7695.7217,7.0894,2.166,9.96,1.4443,2.8711,3.5137,5.1074,6.208,6.71,2.6953,1.603,5.9092,2.4043,9.6426,2.4043,4.5088,0,8.1982-1.1006,11.0693-3.3027,2.8711-2.2007,4.6406-5.2568,5.3105-9.167h-8.1367c-.4229,1.8677-1.3398,3.3022-2.748,4.3062-1.4092,1.0039-3.2754,1.5059-5.6006,1.5059-2.1846,0-4.0508-.502-5.6006-1.5059-1.5498-1.0039-2.7393-2.4302-3.5664-4.2798-.8281-1.8491-1.2412-4.0591-1.2412-6.6309,0-2.5708.4131-4.7896,1.2412-6.6572.8271-1.8667,2.0166-3.3022,3.5664-4.3062ZM1014.0159,325.5458h-15.9043s0-15.1113,0-15.1113h-7.3965s0,36.9854,0,36.9854h7.3965s0-15.9038,0-15.9038h15.9043s0,15.9038,0,15.9038h7.3965s0-36.9854,0-36.9854h-7.3965s0,15.1113,0,15.1113ZM1026.3792,347.4198h24.4629s0-5.9707,0-5.9707h-17.0664s0-9.9331,0-9.9331h15.4814v-5.7588h-15.4814s0-9.352,0-9.352h17.0664s0-5.9707,0-5.9707h-24.4629s0,36.9854,0,36.9854Z"/>
          <path class="cls-9" d="M502.513,230.4369c.888-1.5383,1.6221-3.2047,2.197-5.0038,1.1773-3.6804,1.6137-7.7012,1.309-12.0592l-.8407-12.0219c-.5849-8.3648-3.5608-14.9144-8.9246-19.6489-5.3652-4.7335-12.3053-6.8032-20.8207-6.2078l-27.8008,1.944,7.8813,112.7067,29.3034-2.0491c8.5153-.5955,15.099-3.6231,19.7515-9.0825,4.651-5.4598,6.6872-12.3471,6.1057-20.6628l-.683-9.7677c-.3433-4.9089-1.5645-9.2273-3.6618-12.9573-1.1028-1.959-2.3778-3.6848-3.8163-5.1898ZM469.3377,196.3076l7.5139-.5254c2.4048-.1682,4.3054.3915,5.7046,1.6774,1.3984,1.2874,2.177,3.0568,2.3347,5.311l.8407,12.0219c.1576,2.2543-.3671,4.1162-1.5728,5.5843-1.2066,1.4696-3.0109,2.2869-5.4157,2.455l-7.5139.5254-1.8915-27.0497ZM490.3868,259.7703c.1576,2.2543-.3666,4.1162-1.5723,5.5842-1.2071,1.4696-3.0114,2.2869-5.4162,2.4551l-9.0166.6305-1.7339-24.7954,9.0166-.6305c2.4048-.1682,4.3054.3915,5.7051,1.6774,1.3984,1.2874,2.1765,3.0568,2.3342,5.3111l.683,9.7677ZM586.5524,280.9829l-28.7692-111.2461-21.9406,1.5342-13.4577,114.1989,20.7379-1.4501,1.4754-17.7712,17.432-1.219,3.7843,17.4034,20.7379-1.4501ZM546.1854,245.751l3.1469-38.8018,8.2739,38.0032-11.4208.7986ZM617.3297,239.5681l7.5139-.5254c2.4048-.1682,4.3054.3915,5.7046,1.6774,1.3984,1.2869,2.177,3.0568,2.3347,5.311l2.2067,31.5577,20.2874-1.4186-2.2067-31.5577c-.3047-4.358-1.7544-7.9815-4.3466-10.8712-1.2528-1.395-2.7291-2.5945-4.4186-3.6073,1.6897-1.9529,3.0709-4.1362,4.1224-6.5653,1.82-4.2046,2.5447-8.9611,2.1733-14.2713l-1.261-18.0331c-.5849-8.3648-3.5608-14.9144-8.9246-19.6489-5.3652-4.7335-12.3053-6.8032-20.8207-6.2078l-27.8008,1.944,7.8813,112.7067,20.2869-1.4186-2.7322-39.0716ZM613.5992,186.2198l7.5139-.5254c2.4048-.1682,4.3054.3915,5.7046,1.6774,1.3984,1.2874,2.177,3.0568,2.3347,5.311l1.261,18.0331c.1576,2.2543-.3671,4.1162-1.5728,5.5843-1.2066,1.4696-3.0109,2.2869-5.4157,2.455l-7.5139.5254-2.3119-33.0609ZM693.0681,234.2719l7.5139-.5254c2.4048-.1682,4.3054.3915,5.7046,1.6774,1.3984,1.2869,2.177,3.0568,2.3347,5.311l2.2067,31.5577,20.2874-1.4186-2.2067-31.5577c-.3047-4.358-1.7544-7.9815-4.3466-10.8712-1.2528-1.395-2.7291-2.5945-4.4186-3.6073,1.6897-1.9529,3.0709-4.1362,4.1224-6.5653,1.82-4.2046,2.5447-8.9611,2.1733-14.2713l-1.261-18.0331c-.5849-8.3648-3.5608-14.9144-8.9246-19.6489-5.3652-4.7335-12.3053-6.8032-20.8207-6.2078l-27.8008,1.944,7.8813,112.7067,20.2869-1.4186-2.7322-39.0716ZM689.3376,180.9236l7.5139-.5254c2.4048-.1682,4.3054.3915,5.7046,1.6774,1.3984,1.2874,2.177,3.0568,2.3347,5.311l1.261,18.0331c.1576,2.2543-.3671,4.1162-1.5728,5.5843-1.2066,1.4696-3.0109,2.2869-5.4157,2.455l-7.5139.5254-2.3119-33.0609ZM771.5392,268.0473l-20.2869,1.4186-7.8813-112.7067,20.2869-1.4186,7.8813,112.7067ZM832.3971,155.7815c5.3643,4.734,8.3397,11.2841,8.9246,19.6489l.4203,6.0112-20.2874,1.4186-.4203-6.0112c-.1576-2.2543-.9358-4.0236-2.3342-5.3111-1.3997-1.2859-3.3004-1.8456-5.7046-1.6774s-4.2104.987-5.4162,2.4551c-1.2066,1.4696-1.7299,3.33-1.5723,5.5842l4.3295,61.9138c.1576,2.2538.9349,4.0247,2.3341,5.3106,1.3984,1.2874,3.3004,1.846,5.7052,1.6779s4.2086-.9859,5.4156-2.4555c1.2057-1.4681,1.7299-3.33,1.5723-5.5837l-.4203-6.0112,20.2874-1.4186.4203,6.0112c.5815,8.3156-1.4543,15.2024-6.1058,20.6623-4.652,5.4594-11.2361,8.4871-19.751,9.0825-8.4661.592-15.3944-1.4908-20.7858-6.2479-5.3914-4.7576-8.378-11.2932-8.9595-19.6088l-4.3295-61.9138c-.5849-8.3648,1.4621-15.2661,6.1406-20.7024,4.6786-5.4358,11.2504-8.4509,19.7165-9.0429,8.5149-.5954,15.4555,1.4748,20.8202,6.2083ZM877.0023,243.0045l17.432-1.219,3.7843,17.4034,20.7379-1.4501-28.7692-111.2461-21.9406,1.5342-13.4577,114.1989,20.7379-1.4501,1.4754-17.7712ZM881.7364,183.7051l8.2739,38.0032-11.4208.7986,3.1469-38.8018ZM979.7323,245.7875c4.65-5.4597,6.6862-12.3471,6.1048-20.6627l-3.9932-57.1047c-.5849-8.3648-3.5608-14.9144-8.9236-19.649-5.3667-4.7334-12.3053-6.8032-20.8216-6.2077l-27.8008,1.944,7.8813,112.7067,27.8008-1.944c8.5163-.5955,15.0985-3.6231,19.7524-9.0826ZM946.0033,162.9757l7.5139-.5254c2.4043-.1681,4.3054.3915,5.7051,1.6774,1.3979,1.2875,2.1775,3.0567,2.3351,5.311l3.9932,57.1047c.1576,2.2543-.3681,4.1163-1.5733,5.5843-1.2071,1.4696-3.0119,2.287-5.4162,2.4551l-7.5139.5254-5.044-72.1325ZM1021.2912,157.7111l1.5763,22.5416,22.2406-1.5552,1.4186,20.2874-22.2406,1.5552,2.0491,29.3034,26.2981-1.839,1.4186,20.2874-46.5855,3.2576-7.8813-112.7067,46.5855-3.2576,1.4186,20.2869-26.2981,1.839Z"/>
          <g>
            <polygon class="cls-10" points="1040.0604 217.2249 445.8996 133.7212 461.6237 21.8384 1055.7844 106.342 1040.0604 217.2249"/>
            <path class="cls-9" d="M489.161,139.8012l-43.2614-6.08,15.7241-111.8829,20.1385,2.8303-12.8937,91.7439,23.1229,3.2497-2.8303,20.139ZM514.2208,143.3232l-20.5863-2.8932,36.907-108.9058,21.7801,3.061,5.0111,114.797-20.5863-2.8932-.0832-17.8099-17.3045-2.432-5.138,17.0761ZM525.173,106.5274l11.3373,1.5934-.1918-38.893-11.1455,37.2996Z"/>
          </g>
        </g>
      </g>
    </g>
  </g>
</svg>